<svg width="6" height="11" viewBox="0 0 6 11" fill="none" xmlns="http://www.w3.org/2000/svg">
<mask id="path-1-inside-1_226_4147" fill="white">
<path d="M4.9735 5.5L0.121426 0.700161C-0.04366 0.536877 -0.0399453 0.27572 0.129712 0.116853C0.29937 -0.0420202 0.570685 -0.0384398 0.735714 0.124839L5.87859 5.21235C6.04047 5.37246 6.04047 5.62755 5.87859 5.78765L0.735714 10.8752C0.570685 11.0384 0.29937 11.042 0.129712 10.8831C-0.0399453 10.7243 -0.04366 10.4631 0.121426 10.2999L4.9735 5.5Z"/>
</mask>
<path d="M4.9735 5.5L0.121426 0.700161C-0.04366 0.536877 -0.0399453 0.27572 0.129712 0.116853C0.29937 -0.0420202 0.570685 -0.0384398 0.735714 0.124839L5.87859 5.21235C6.04047 5.37246 6.04047 5.62755 5.87859 5.78765L0.735714 10.8752C0.570685 11.0384 0.29937 11.042 0.129712 10.8831C-0.0399453 10.7243 -0.04366 10.4631 0.121426 10.2999L4.9735 5.5Z" fill="white"/>
<path d="M4.9735 5.5L75.3006 76.5922L147.166 5.49992L75.3005 -65.5923L4.9735 5.5ZM0.121426 0.700161L70.4484 -70.3921L70.443 -70.3975L0.121426 0.700161ZM0.129712 0.116853L68.4811 73.1106L68.4824 73.1094L0.129712 0.116853ZM0.735714 0.124839L-69.5969 71.2115L-69.5913 71.2171L0.735714 0.124839ZM5.87859 5.21235L-64.4484 76.3046L-64.4399 76.3131L5.87859 5.21235ZM5.87859 5.78765L-64.4399 -65.3131L-64.4483 -65.3047L5.87859 5.78765ZM0.735714 10.8752L-69.5912 -60.2172L-69.6005 -60.208L0.735714 10.8752ZM0.129712 10.8831L68.4874 -62.1047L68.4811 -62.1106L68.4748 -62.1165L0.129712 10.8831ZM0.121426 10.2999L70.4454 81.3952L70.4485 81.3921L0.121426 10.2999ZM75.3005 -65.5923L70.4484 -70.3921L-70.2056 71.7924L-65.3535 76.5923L75.3005 -65.5923ZM70.443 -70.3975C110.686 -30.594 109.646 34.5638 68.4811 73.1106L-68.2217 -72.8769C-109.726 -34.0123 -110.773 31.6677 -70.2001 71.7978L70.443 -70.3975ZM68.4824 73.1094C29.498 109.616 -31.4833 108.921 -69.5969 71.2115L71.0684 -70.9619C32.6247 -108.998 -28.8992 -109.7 -68.2229 -72.8757L68.4824 73.1094ZM-69.5913 71.2171L-64.4484 76.3046L76.2056 -65.8799L71.0627 -70.9674L-69.5913 71.2171ZM-64.4399 76.3131C-103.853 37.3332 -103.853 -26.3332 -64.4399 -65.3131L76.197 76.8884C115.934 37.5883 115.934 -26.5883 76.197 -65.8884L-64.4399 76.3131ZM-64.4483 -65.3047L-69.5912 -60.2172L71.0627 81.9675L76.2055 76.88L-64.4483 -65.3047ZM-69.6005 -60.208C-31.4844 -97.9236 29.5032 -98.6158 68.4874 -62.1047L-68.228 83.871C-28.9045 120.7 32.6258 120 71.072 81.9583L-69.6005 -60.208ZM68.4748 -62.1165C109.653 -23.564 110.68 41.5968 70.4454 81.3952L-70.2025 -60.7955C-110.768 -20.6705 -109.733 45.0126 -68.2154 83.8828L68.4748 -62.1165ZM70.4485 81.3921L75.3006 76.5922L-65.3536 -65.5922L-70.2057 -60.7924L70.4485 81.3921Z" fill="black" mask="url(#path-1-inside-1_226_4147)"/>
</svg>
