<svg width="6" height="11" viewBox="0 0 6 11" fill="none" xmlns="http://www.w3.org/2000/svg">
<mask id="path-1-inside-1_226_4217" fill="white">
<path d="M1.0265 5.5L5.87857 0.700161C6.04366 0.536877 6.03995 0.27572 5.87029 0.116853C5.70063 -0.0420202 5.42931 -0.0384398 5.26429 0.124839L0.121414 5.21235C-0.040472 5.37246 -0.040472 5.62755 0.121414 5.78765L5.26429 10.8752C5.42931 11.0384 5.70063 11.042 5.87029 10.8831C6.03995 10.7243 6.04366 10.4631 5.87857 10.2999L1.0265 5.5Z"/>
</mask>
<path d="M1.0265 5.5L5.87857 0.700161C6.04366 0.536877 6.03995 0.27572 5.87029 0.116853C5.70063 -0.0420202 5.42931 -0.0384398 5.26429 0.124839L0.121414 5.21235C-0.040472 5.37246 -0.040472 5.62755 0.121414 5.78765L5.26429 10.8752C5.42931 11.0384 5.70063 11.042 5.87029 10.8831C6.03995 10.7243 6.04366 10.4631 5.87857 10.2999L1.0265 5.5Z" fill="white"/>
<path d="M1.0265 5.5L-69.3006 76.5922L-141.166 5.49992L-69.3005 -65.5923L1.0265 5.5ZM5.87857 0.700161L-64.4484 -70.3921L-64.443 -70.3975L5.87857 0.700161ZM5.87029 0.116853L-62.4811 73.1106L-62.4824 73.1094L5.87029 0.116853ZM5.26429 0.124839L75.5969 71.2115L75.5913 71.2171L5.26429 0.124839ZM0.121414 5.21235L70.4484 76.3046L70.4399 76.3131L0.121414 5.21235ZM0.121414 5.78765L70.4399 -65.3131L70.4483 -65.3047L0.121414 5.78765ZM5.26429 10.8752L75.5912 -60.2172L75.6005 -60.208L5.26429 10.8752ZM5.87029 10.8831L-62.4874 -62.1047L-62.4811 -62.1106L-62.4748 -62.1165L5.87029 10.8831ZM5.87857 10.2999L-64.4454 81.3952L-64.4485 81.3921L5.87857 10.2999ZM-69.3005 -65.5923L-64.4484 -70.3921L76.2056 71.7924L71.3535 76.5923L-69.3005 -65.5923ZM-64.443 -70.3975C-104.686 -30.594 -103.646 34.5638 -62.4811 73.1106L74.2217 -72.8769C115.726 -34.0123 116.773 31.6677 76.2001 71.7978L-64.443 -70.3975ZM-62.4824 73.1094C-23.498 109.616 37.4833 108.921 75.5969 71.2115L-65.0684 -70.9619C-26.6247 -108.998 34.8992 -109.7 74.2229 -72.8757L-62.4824 73.1094ZM75.5913 71.2171L70.4484 76.3046L-70.2056 -65.8799L-65.0627 -70.9674L75.5913 71.2171ZM70.4399 76.3131C109.853 37.3332 109.853 -26.3332 70.4399 -65.3131L-70.197 76.8884C-109.934 37.5883 -109.934 -26.5883 -70.197 -65.8884L70.4399 76.3131ZM70.4483 -65.3047L75.5912 -60.2172L-65.0627 81.9675L-70.2055 76.88L70.4483 -65.3047ZM75.6005 -60.208C37.4844 -97.9236 -23.5032 -98.6158 -62.4874 -62.1047L74.228 83.871C34.9045 120.7 -26.6258 120 -65.072 81.9583L75.6005 -60.208ZM-62.4748 -62.1165C-103.653 -23.564 -104.68 41.5968 -64.4454 81.3952L76.2025 -60.7955C116.768 -20.6705 115.733 45.0126 74.2154 83.8828L-62.4748 -62.1165ZM-64.4485 81.3921L-69.3006 76.5922L71.3536 -65.5922L76.2057 -60.7924L-64.4485 81.3921Z" fill="black" mask="url(#path-1-inside-1_226_4217)"/>
</svg>
