<svg width="7" height="11" viewBox="0 0 7 11" fill="none" xmlns="http://www.w3.org/2000/svg">
<g id="Group 119" filter="url(#filter0_i_224_1581)">
<g id="Group 110">
<g id="Vector">
<mask id="path-1-inside-1_224_1581" fill="white">
<path d="M5.9735 5.5L1.12143 0.700161C0.95634 0.536877 0.960055 0.27572 1.12971 0.116853C1.29937 -0.0420202 1.57069 -0.0384398 1.73571 0.124839L6.87859 5.21235C7.04047 5.37246 7.04047 5.62755 6.87859 5.78765L1.73571 10.8752C1.57069 11.0384 1.29937 11.042 1.12971 10.8831C0.960055 10.7243 0.95634 10.4631 1.12143 10.2999L5.9735 5.5Z"/>
</mask>
<path d="M5.9735 5.5L1.12143 0.700161C0.95634 0.536877 0.960055 0.27572 1.12971 0.116853C1.29937 -0.0420202 1.57069 -0.0384398 1.73571 0.124839L6.87859 5.21235C7.04047 5.37246 7.04047 5.62755 6.87859 5.78765L1.73571 10.8752C1.57069 11.0384 1.29937 11.042 1.12971 10.8831C0.960055 10.7243 0.95634 10.4631 1.12143 10.2999L5.9735 5.5Z" fill="white"/>
<path d="M5.9735 5.5L76.3006 76.5922L148.166 5.49992L76.3005 -65.5923L5.9735 5.5ZM1.12143 0.700161L71.4484 -70.3921L71.443 -70.3975L1.12143 0.700161ZM1.12971 0.116853L69.4811 73.1106L69.4824 73.1094L1.12971 0.116853ZM1.73571 0.124839L-68.5969 71.2115L-68.5913 71.2171L1.73571 0.124839ZM6.87859 5.21235L-63.4484 76.3046L-63.4399 76.3131L6.87859 5.21235ZM6.87859 5.78765L-63.4399 -65.3131L-63.4484 -65.3047L6.87859 5.78765ZM1.73571 10.8752L-68.5912 -60.2172L-68.6005 -60.208L1.73571 10.8752ZM1.12971 10.8831L69.4874 -62.1047L69.4811 -62.1106L69.4748 -62.1165L1.12971 10.8831ZM1.12143 10.2999L71.4454 81.3952L71.4485 81.3921L1.12143 10.2999ZM76.3005 -65.5923L71.4484 -70.3921L-69.2056 71.7924L-64.3535 76.5923L76.3005 -65.5923ZM71.443 -70.3975C111.686 -30.594 110.646 34.5638 69.4811 73.1106L-67.2217 -72.8769C-108.726 -34.0123 -109.773 31.6677 -69.2001 71.7978L71.443 -70.3975ZM69.4824 73.1094C30.498 109.616 -30.4833 108.921 -68.5969 71.2115L72.0684 -70.9619C33.6247 -108.998 -27.8992 -109.7 -67.2229 -72.8757L69.4824 73.1094ZM-68.5913 71.2171L-63.4484 76.3046L77.2056 -65.8799L72.0627 -70.9674L-68.5913 71.2171ZM-63.4399 76.3131C-102.853 37.3332 -102.853 -26.3332 -63.4399 -65.3131L77.197 76.8884C116.934 37.5883 116.934 -26.5883 77.197 -65.8884L-63.4399 76.3131ZM-63.4484 -65.3047L-68.5912 -60.2172L72.0627 81.9675L77.2055 76.88L-63.4484 -65.3047ZM-68.6005 -60.208C-30.4844 -97.9236 30.5033 -98.6158 69.4874 -62.1047L-67.228 83.871C-27.9045 120.7 33.6258 120 72.072 81.9583L-68.6005 -60.208ZM69.4748 -62.1165C110.653 -23.564 111.68 41.5968 71.4454 81.3952L-69.2025 -60.7955C-109.768 -20.6705 -108.733 45.0126 -67.2154 83.8828L69.4748 -62.1165ZM71.4485 81.3921L76.3006 76.5922L-64.3536 -65.5922L-69.2057 -60.7923L71.4485 81.3921Z" fill="black" mask="url(#path-1-inside-1_224_1581)"/>
</g>
<g id="Vector_2">
<mask id="path-3-inside-2_224_1581" fill="white">
<path d="M4.9735 5.5L0.121426 0.700161C-0.04366 0.536877 -0.0399453 0.27572 0.129712 0.116853C0.29937 -0.0420202 0.570685 -0.0384398 0.735714 0.124839L5.87859 5.21235C6.04047 5.37246 6.04047 5.62755 5.87859 5.78765L0.735714 10.8752C0.570685 11.0384 0.29937 11.042 0.129712 10.8831C-0.0399453 10.7243 -0.04366 10.4631 0.121426 10.2999L4.9735 5.5Z"/>
</mask>
<path d="M4.9735 5.5L0.121426 0.700161C-0.04366 0.536877 -0.0399453 0.27572 0.129712 0.116853C0.29937 -0.0420202 0.570685 -0.0384398 0.735714 0.124839L5.87859 5.21235C6.04047 5.37246 6.04047 5.62755 5.87859 5.78765L0.735714 10.8752C0.570685 11.0384 0.29937 11.042 0.129712 10.8831C-0.0399453 10.7243 -0.04366 10.4631 0.121426 10.2999L4.9735 5.5Z" fill="white"/>
<path d="M4.9735 5.5L75.3006 76.5922L147.166 5.49992L75.3005 -65.5923L4.9735 5.5ZM0.121426 0.700161L70.4484 -70.3921L70.443 -70.3975L0.121426 0.700161ZM0.129712 0.116853L68.4811 73.1106L68.4824 73.1094L0.129712 0.116853ZM0.735714 0.124839L-69.5969 71.2115L-69.5913 71.2171L0.735714 0.124839ZM5.87859 5.21235L-64.4484 76.3046L-64.4399 76.3131L5.87859 5.21235ZM5.87859 5.78765L-64.4399 -65.3131L-64.4483 -65.3047L5.87859 5.78765ZM0.735714 10.8752L-69.5912 -60.2172L-69.6005 -60.208L0.735714 10.8752ZM0.129712 10.8831L68.4874 -62.1047L68.4811 -62.1106L68.4748 -62.1165L0.129712 10.8831ZM0.121426 10.2999L70.4454 81.3952L70.4485 81.3921L0.121426 10.2999ZM75.3005 -65.5923L70.4484 -70.3921L-70.2056 71.7924L-65.3535 76.5923L75.3005 -65.5923ZM70.443 -70.3975C110.686 -30.594 109.646 34.5638 68.4811 73.1106L-68.2217 -72.8769C-109.726 -34.0123 -110.773 31.6677 -70.2001 71.7978L70.443 -70.3975ZM68.4824 73.1094C29.498 109.616 -31.4833 108.921 -69.5969 71.2115L71.0684 -70.9619C32.6247 -108.998 -28.8992 -109.7 -68.2229 -72.8757L68.4824 73.1094ZM-69.5913 71.2171L-64.4484 76.3046L76.2056 -65.8799L71.0627 -70.9674L-69.5913 71.2171ZM-64.4399 76.3131C-103.853 37.3332 -103.853 -26.3332 -64.4399 -65.3131L76.197 76.8884C115.934 37.5883 115.934 -26.5883 76.197 -65.8884L-64.4399 76.3131ZM-64.4483 -65.3047L-69.5912 -60.2172L71.0627 81.9675L76.2055 76.88L-64.4483 -65.3047ZM-69.6005 -60.208C-31.4844 -97.9236 29.5032 -98.6158 68.4874 -62.1047L-68.228 83.871C-28.9045 120.7 32.6258 120 71.072 81.9583L-69.6005 -60.208ZM68.4748 -62.1165C109.653 -23.564 110.68 41.5968 70.4454 81.3952L-70.2025 -60.7955C-110.768 -20.6705 -109.733 45.0126 -68.2154 83.8828L68.4748 -62.1165ZM70.4485 81.3921L75.3006 76.5922L-65.3536 -65.5922L-70.2057 -60.7924L70.4485 81.3921Z" fill="black" mask="url(#path-3-inside-2_224_1581)"/>
</g>
</g>
</g>
<defs>
<filter id="filter0_i_224_1581" x="-2" y="-2" width="9" height="13" filterUnits="userSpaceOnUse" color-interpolation-filters="sRGB">
<feFlood flood-opacity="0" result="BackgroundImageFix"/>
<feBlend mode="normal" in="SourceGraphic" in2="BackgroundImageFix" result="shape"/>
<feColorMatrix in="SourceAlpha" type="matrix" values="0 0 0 0 0 0 0 0 0 0 0 0 0 0 0 0 0 0 127 0" result="hardAlpha"/>
<feOffset dx="-8" dy="-4"/>
<feGaussianBlur stdDeviation="1"/>
<feComposite in2="hardAlpha" operator="arithmetic" k2="-1" k3="1"/>
<feColorMatrix type="matrix" values="0 0 0 0 0.0579362 0 0 0 0 0.142679 0 0 0 0 0.316016 0 0 0 1 0"/>
<feBlend mode="normal" in2="shape" result="effect1_innerShadow_224_1581"/>
</filter>
</defs>
</svg>
