<svg xmlns="http://www.w3.org/2000/svg" width="7" height="11" viewBox="0 0 7 11" fill="none">
         <g filter="url(#filter0_i_224_2687)">
           <mask id="path-1-inside-1_224_2687" fill="white">
             <path d="M1.0265 5.5L5.87857 0.700161C6.04366 0.536877 6.03995 0.27572 5.87029 0.116853C5.70063 -0.0420202 5.42931 -0.0384398 5.26429 0.124839L0.121415 5.21235C-0.0404716 5.37246 -0.0404716 5.62755 0.121415 5.78765L5.26429 10.8752C5.42931 11.0384 5.70063 11.042 5.87029 10.8831C6.03995 10.7243 6.04366 10.4631 5.87857 10.2999L1.0265 5.5Z"/>
           </mask>
           <path d="M1.0265 5.5L5.87857 0.700161C6.04366 0.536877 6.03995 0.27572 5.87029 0.116853C5.70063 -0.0420202 5.42931 -0.0384398 5.26429 0.124839L0.121415 5.21235C-0.0404716 5.37246 -0.0404716 5.62755 0.121415 5.78765L5.26429 10.8752C5.42931 11.0384 5.70063 11.042 5.87029 10.8831C6.03995 10.7243 6.04366 10.4631 5.87857 10.2999L1.0265 5.5Z" fill="white"/>
           <path d="M1.0265 5.5L-69.3006 76.5922L-141.166 5.49992L-69.3005 -65.5923L1.0265 5.5ZM5.87857 0.700161L-64.4484 -70.3921L-64.443 -70.3975L5.87857 0.700161ZM5.87029 0.116853L-62.4811 73.1106L-62.4824 73.1094L5.87029 0.116853ZM5.26429 0.124839L75.5969 71.2115L75.5913 71.2171L5.26429 0.124839ZM0.121415 5.21235L70.4484 76.3046L70.4399 76.3131L0.121415 5.21235ZM0.121415 5.78765L70.4399 -65.3131L70.4484 -65.3047L0.121415 5.78765ZM5.26429 10.8752L75.5912 -60.2172L75.6005 -60.208L5.26429 10.8752ZM5.87029 10.8831L-62.4874 -62.1047L-62.4811 -62.1106L-62.4748 -62.1165L5.87029 10.8831ZM5.87857 10.2999L-64.4454 81.3952L-64.4485 81.3921L5.87857 10.2999ZM-69.3005 -65.5923L-64.4484 -70.3921L76.2056 71.7924L71.3535 76.5923L-69.3005 -65.5923ZM-64.443 -70.3975C-104.686 -30.594 -103.646 34.5638 -62.4811 73.1106L74.2217 -72.8769C115.726 -34.0123 116.773 31.6677 76.2001 71.7978L-64.443 -70.3975ZM-62.4824 73.1094C-23.498 109.616 37.4833 108.921 75.5969 71.2115L-65.0684 -70.9619C-26.6247 -108.998 34.8992 -109.7 74.2229 -72.8757L-62.4824 73.1094ZM75.5913 71.2171L70.4484 76.3046L-70.2056 -65.8799L-65.0627 -70.9674L75.5913 71.2171ZM70.4399 76.3131C109.853 37.3332 109.853 -26.3332 70.4399 -65.3131L-70.197 76.8884C-109.934 37.5883 -109.934 -26.5883 -70.197 -65.8884L70.4399 76.3131ZM70.4484 -65.3047L75.5912 -60.2172L-65.0627 81.9675L-70.2055 76.88L70.4484 -65.3047ZM75.6005 -60.208C37.4844 -97.9236 -23.5033 -98.6158 -62.4874 -62.1047L74.228 83.871C34.9045 120.7 -26.6258 120 -65.072 81.9583L75.6005 -60.208ZM-62.4748 -62.1165C-103.653 -23.564 -104.68 41.5968 -64.4454 81.3952L76.2025 -60.7955C116.768 -20.6705 115.733 45.0126 74.2154 83.8828L-62.4748 -62.1165ZM-64.4485 81.3921L-69.3006 76.5922L71.3536 -65.5922L76.2057 -60.7923L-64.4485 81.3921Z" fill="black" mask="url(#path-1-inside-1_224_2687)"/>
           <mask id="path-3-inside-2_224_2687" fill="white">
             <path d="M2.0265 5.5L6.87857 0.700161C7.04366 0.536877 7.03995 0.27572 6.87029 0.116853C6.70063 -0.0420202 6.42931 -0.0384398 6.26429 0.124839L1.12141 5.21235C0.959528 5.37246 0.959528 5.62755 1.12141 5.78765L6.26429 10.8752C6.42931 11.0384 6.70063 11.042 6.87029 10.8831C7.03995 10.7243 7.04366 10.4631 6.87857 10.2999L2.0265 5.5Z"/>
           </mask>
           <path d="M2.0265 5.5L6.87857 0.700161C7.04366 0.536877 7.03995 0.27572 6.87029 0.116853C6.70063 -0.0420202 6.42931 -0.0384398 6.26429 0.124839L1.12141 5.21235C0.959528 5.37246 0.959528 5.62755 1.12141 5.78765L6.26429 10.8752C6.42931 11.0384 6.70063 11.042 6.87029 10.8831C7.03995 10.7243 7.04366 10.4631 6.87857 10.2999L2.0265 5.5Z" fill="white"/>
           <path d="M2.0265 5.5L-68.3006 76.5922L-140.166 5.49992L-68.3005 -65.5923L2.0265 5.5ZM6.87857 0.700161L-63.4484 -70.3921L-63.443 -70.3975L6.87857 0.700161ZM6.87029 0.116853L-61.4811 73.1106L-61.4824 73.1094L6.87029 0.116853ZM6.26429 0.124839L76.5969 71.2115L76.5913 71.2171L6.26429 0.124839ZM1.12141 5.21235L71.4484 76.3046L71.4399 76.3131L1.12141 5.21235ZM1.12141 5.78765L71.4399 -65.3131L71.4483 -65.3047L1.12141 5.78765ZM6.26429 10.8752L76.5912 -60.2172L76.6005 -60.208L6.26429 10.8752ZM6.87029 10.8831L-61.4874 -62.1047L-61.4811 -62.1106L-61.4748 -62.1165L6.87029 10.8831ZM6.87857 10.2999L-63.4454 81.3952L-63.4485 81.3921L6.87857 10.2999ZM-68.3005 -65.5923L-63.4484 -70.3921L77.2056 71.7924L72.3535 76.5923L-68.3005 -65.5923ZM-63.443 -70.3975C-103.686 -30.594 -102.646 34.5638 -61.4811 73.1106L75.2217 -72.8769C116.726 -34.0123 117.773 31.6677 77.2001 71.7978L-63.443 -70.3975ZM-61.4824 73.1094C-22.498 109.616 38.4833 108.921 76.5969 71.2115L-64.0684 -70.9619C-25.6247 -108.998 35.8992 -109.7 75.2229 -72.8757L-61.4824 73.1094ZM76.5913 71.2171L71.4484 76.3046L-69.2056 -65.8799L-64.0627 -70.9674L76.5913 71.2171ZM71.4399 76.3131C110.853 37.3332 110.853 -26.3332 71.4399 -65.3131L-69.197 76.8884C-108.934 37.5883 -108.934 -26.5883 -69.197 -65.8884L71.4399 76.3131ZM71.4483 -65.3047L76.5912 -60.2172L-64.0627 81.9675L-69.2055 76.88L71.4483 -65.3047ZM76.6005 -60.208C38.4844 -97.9236 -22.5032 -98.6158 -61.4874 -62.1047L75.228 83.871C35.9045 120.7 -25.6258 120 -64.072 81.9583L76.6005 -60.208ZM-61.4748 -62.1165C-102.653 -23.564 -103.68 41.5968 -63.4454 81.3952L77.2025 -60.7955C117.768 -20.6705 116.733 45.0126 75.2154 83.8828L-61.4748 -62.1165ZM-63.4485 81.3921L-68.3006 76.5922L72.3536 -65.5922L77.2057 -60.7924L-63.4485 81.3921Z" fill="black" mask="url(#path-3-inside-2_224_2687)"/>
         </g>
         <defs>
           <filter id="filter0_i_224_2687" x="-2" y="-2" width="9" height="13" filterUnits="userSpaceOnUse" color-interpolation-filters="sRGB">
             <feFlood flood-opacity="0" result="BackgroundImageFix"/>
             <feBlend mode="normal" in="SourceGraphic" in2="BackgroundImageFix" result="shape"/>
             <feColorMatrix in="SourceAlpha" type="matrix" values="0 0 0 0 0 0 0 0 0 0 0 0 0 0 0 0 0 0 127 0" result="hardAlpha"/>
             <feOffset dx="-8" dy="-4"/>
             <feGaussianBlur stdDeviation="1"/>
             <feComposite in2="hardAlpha" operator="arithmetic" k2="-1" k3="1"/>
             <feColorMatrix type="matrix" values="0 0 0 0 0.0579362 0 0 0 0 0.142679 0 0 0 0 0.316016 0 0 0 1 0"/>
             <feBlend mode="normal" in2="shape" result="effect1_innerShadow_224_2687"/>
           </filter>
         </defs>
       </svg>