<svg width="18" height="18" viewBox="0 0 18 18" fill="none" xmlns="http://www.w3.org/2000/svg">
<g id="clarity:calendar-line" clip-path="url(#clip0_1090_1735)">
<path id="Vector" d="M16.0358 2.91345H14.5011V3.8579H15.9178V14.2468H2.69554V3.8579H4.11221V2.91345H2.57749C2.4671 2.9153 2.35816 2.93887 2.25688 2.98283C2.1556 3.02678 2.06398 3.09026 1.98724 3.16963C1.9105 3.249 1.85015 3.34271 1.80963 3.44541C1.76911 3.54811 1.74922 3.65779 1.7511 3.76817V14.3365C1.74922 14.4469 1.76911 14.5566 1.80963 14.6593C1.85015 14.762 1.9105 14.8557 1.98724 14.9351C2.06398 15.0144 2.1556 15.0779 2.25688 15.1219C2.35816 15.1658 2.4671 15.1894 2.57749 15.1912H16.0358C16.1462 15.1894 16.2552 15.1658 16.3564 15.1219C16.4577 15.0779 16.5493 15.0144 16.6261 14.9351C16.7028 14.8557 16.7632 14.762 16.8037 14.6593C16.8442 14.5566 16.8641 14.4469 16.8622 14.3365V3.76817C16.8641 3.65779 16.8442 3.54811 16.8037 3.44541C16.7632 3.34271 16.7028 3.249 16.6261 3.16963C16.5493 3.09026 16.4577 3.02678 16.3564 2.98283C16.2552 2.93887 16.1462 2.9153 16.0358 2.91345Z" fill="#F6F9FF"/>
<path id="Vector_2" d="M4.58441 6.69116H5.52886V7.63561H4.58441V6.69116Z" fill="#F6F9FF"/>
<path id="Vector_3" d="M7.41776 6.69116H8.3622V7.63561H7.41776V6.69116Z" fill="#F6F9FF"/>
<path id="Vector_4" d="M10.2511 6.69116H11.1955V7.63561H10.2511V6.69116Z" fill="#F6F9FF"/>
<path id="Vector_5" d="M13.0844 6.69116H14.0289V7.63561H13.0844V6.69116Z" fill="#F6F9FF"/>
<path id="Vector_6" d="M4.58441 9.05225H5.52886V9.99669H4.58441V9.05225Z" fill="#F6F9FF"/>
<path id="Vector_7" d="M7.41776 9.05225H8.3622V9.99669H7.41776V9.05225Z" fill="#F6F9FF"/>
<path id="Vector_8" d="M10.2511 9.05225H11.1955V9.99669H10.2511V9.05225Z" fill="#F6F9FF"/>
<path id="Vector_9" d="M13.0844 9.05225H14.0289V9.99669H13.0844V9.05225Z" fill="#F6F9FF"/>
<path id="Vector_10" d="M4.58441 11.4135H5.52886V12.3579H4.58441V11.4135Z" fill="#F6F9FF"/>
<path id="Vector_11" d="M7.41776 11.4135H8.3622V12.3579H7.41776V11.4135Z" fill="#F6F9FF"/>
<path id="Vector_12" d="M10.2511 11.4135H11.1955V12.3579H10.2511V11.4135Z" fill="#F6F9FF"/>
<path id="Vector_13" d="M13.0844 11.4135H14.0289V12.3579H13.0844V11.4135Z" fill="#F6F9FF"/>
<path id="Vector_14" d="M5.52886 4.80231C5.6541 4.80231 5.77422 4.75256 5.86277 4.664C5.95133 4.57544 6.00109 4.45533 6.00109 4.33009V1.49676C6.00109 1.37152 5.95133 1.25141 5.86277 1.16285C5.77422 1.07429 5.6541 1.02454 5.52886 1.02454C5.40362 1.02454 5.28351 1.07429 5.19495 1.16285C5.10639 1.25141 5.05664 1.37152 5.05664 1.49676V4.33009C5.05664 4.45533 5.10639 4.57544 5.19495 4.664C5.28351 4.75256 5.40362 4.80231 5.52886 4.80231Z" fill="#F6F9FF"/>
<path id="Vector_15" d="M13.0844 4.80231C13.2096 4.80231 13.3298 4.75256 13.4183 4.664C13.5069 4.57544 13.5566 4.45533 13.5566 4.33009V1.49676C13.5566 1.37152 13.5069 1.25141 13.4183 1.16285C13.3298 1.07429 13.2096 1.02454 13.0844 1.02454C12.9592 1.02454 12.8391 1.07429 12.7505 1.16285C12.6619 1.25141 12.6122 1.37152 12.6122 1.49676V4.33009C12.6122 4.45533 12.6619 4.57544 12.7505 4.664C12.8391 4.75256 12.9592 4.80231 13.0844 4.80231Z" fill="#F6F9FF"/>
<path id="Vector_16" d="M6.94553 2.91345H11.6677V3.8579H6.94553V2.91345Z" fill="#F6F9FF"/>
</g>
<defs>
<clipPath id="clip0_1090_1735">
<rect width="17" height="17" fill="white" transform="translate(0.806641 0.0800781)"/>
</clipPath>
</defs>
</svg>
