<svg width="15" height="22" viewBox="0 0 15 22" fill="none" xmlns="http://www.w3.org/2000/svg">
<g id="Frame" clip-path="url(#clip0_1090_1711)">
<path id="Vector" d="M9.51299 0.0800781C9.7718 0.356134 10.0278 0.634789 10.2897 0.907986C11.2291 1.88848 12.1714 2.86637 13.1085 3.8492C13.1582 3.90145 13.1956 3.99035 13.1958 4.06235C13.2002 5.99007 13.1992 7.91804 13.1987 9.84575C13.1987 9.8889 13.1948 9.93205 13.1807 9.97546C13.1765 9.92945 13.1724 9.88318 13.1665 9.81638C12.8379 9.97156 12.5196 10.1215 12.1815 10.2811V4.47488H8.9794V1.12945H1.84495V15.338H7.12034C7.10308 15.3858 7.09407 15.4176 7.08016 15.4474C6.99801 15.6232 6.91586 15.7989 6.83165 15.9736C6.7665 16.1085 6.73019 16.2941 6.62228 16.3614C6.51284 16.4295 6.33128 16.3819 6.1814 16.3822C4.44311 16.3827 2.70457 16.3825 0.966279 16.3827C0.919667 16.3827 0.873313 16.3827 0.808674 16.3827C0.808674 16.3268 0.808674 16.2811 0.808674 16.2351C0.808674 10.8847 0.808932 5.53465 0.809189 0.184314C0.809189 0.149742 0.807901 0.11491 0.807129 0.0803381C3.70891 0.0800781 6.61095 0.0800781 9.51299 0.0800781ZM11.6798 3.844C10.9719 3.10655 10.2907 2.39692 9.59514 1.67221V3.844H11.6798Z" fill="white"/>
<path id="Vector_2" d="M6.99341 13.9747C7.35214 13.7249 7.69722 13.4844 8.04977 13.2388C7.86925 12.8512 7.6913 12.4694 7.50511 12.0704C7.93698 12.0337 8.35597 11.9984 8.7832 11.9622C8.81925 11.5331 8.85454 11.113 8.89136 10.674C9.19601 10.8193 9.48135 10.955 9.76617 11.0912C9.95502 11.1815 10.11 11.1391 10.231 10.9641C10.4118 10.7018 10.5923 10.439 10.7818 10.1635C11.028 10.5235 11.2673 10.8731 11.5112 11.23C11.8987 11.0457 12.2768 10.8661 12.669 10.6797C12.6901 10.9235 12.7115 11.1533 12.7298 11.3833C12.7411 11.5255 12.756 11.6682 12.755 11.8104C12.754 11.9456 12.8135 11.9838 12.9396 11.9911C13.3028 12.0119 13.6653 12.0454 14.0542 12.0761C13.8685 12.4725 13.6888 12.8556 13.5049 13.2484C13.8513 13.4912 14.1953 13.7324 14.5582 13.9866C14.2033 14.2344 13.86 14.474 13.5036 14.7231C13.6826 15.1088 13.8611 15.493 14.0462 15.8923C13.9061 15.9055 13.7794 15.9188 13.6527 15.9292C13.4009 15.9494 13.149 15.9747 12.8964 15.9848C12.7911 15.989 12.7594 16.0225 12.7535 16.1278C12.7336 16.4774 12.7025 16.8262 12.6746 17.1756C12.6721 17.2091 12.6607 17.2419 12.6512 17.2853C12.268 17.1018 11.8938 16.9221 11.5047 16.7358C11.2624 17.0864 11.0213 17.4353 10.7705 17.7987C10.523 17.4371 10.2853 17.0898 10.0415 16.7334C9.65647 16.9159 9.27559 17.0963 8.88029 17.2835C8.85042 16.8954 8.81745 16.5307 8.79711 16.1655C8.79041 16.0433 8.77007 15.984 8.62688 15.9767C8.25553 15.9578 7.88521 15.9162 7.49919 15.8824C7.68409 15.4894 7.86333 15.1083 8.04823 14.7155C7.69877 14.4701 7.35162 14.2263 6.99392 13.9752L6.99341 13.9747ZM10.7723 15.919C11.8256 15.9201 12.6968 15.0542 12.6968 14.0064C12.6968 12.9128 11.8506 12.0423 10.7862 12.0407C9.71673 12.0392 8.84733 12.9139 8.85222 13.9866C8.85711 15.0527 9.71724 15.9183 10.7726 15.9193L10.7723 15.919Z" fill="white"/>
<path id="Vector_3" d="M9.82565 17.3658C10.0935 17.7591 10.3579 18.147 10.6209 18.5358C10.6338 18.5548 10.6405 18.5855 10.6356 18.6076C10.4558 19.423 10.2745 20.2382 10.0881 21.0762C9.95982 20.9694 9.84496 20.875 9.73139 20.7794C9.28356 20.4022 8.83727 20.0229 8.38712 19.6484C8.32119 19.5935 8.30239 19.5509 8.33767 19.4659C8.56301 18.9247 8.77984 18.3799 9.00595 17.8392C9.03118 17.7791 9.08913 17.7191 9.14733 17.6892C9.36751 17.5759 9.59413 17.4748 9.82539 17.3658H9.82565Z" fill="white"/>
<path id="Vector_4" d="M11.5346 21.0801C11.351 20.2512 11.1722 19.4477 10.9974 18.6432C10.9879 18.5998 11.001 18.5397 11.0257 18.5026C11.2773 18.1264 11.5338 17.7532 11.798 17.3656C12.0131 17.4678 12.226 17.5738 12.4431 17.6705C12.5394 17.7134 12.5971 17.7737 12.637 17.8746C12.8606 18.4392 13.0921 19.0006 13.3244 19.5717C12.731 20.0718 12.1398 20.5701 11.5343 21.0804L11.5346 21.0801Z" fill="white"/>
<path id="Vector_5" d="M4.36664 6.88136V6.27258H9.65619C9.65619 6.45688 9.6567 6.63338 9.65619 6.80988C9.65593 6.90242 9.58511 6.87928 9.53438 6.87954C9.0456 6.8811 8.55656 6.8811 8.06778 6.8811C6.88419 6.8811 5.70061 6.8811 4.51703 6.8811C4.47068 6.8811 4.42432 6.8811 4.36664 6.8811V6.88136Z" fill="white"/>
<path id="Vector_6" d="M9.6557 7.93811C9.6557 8.12111 9.65982 8.30177 9.65055 8.4819C9.64927 8.50504 9.57819 8.54221 9.53904 8.54273C9.07164 8.54689 8.60423 8.54559 8.13657 8.54533C6.92723 8.54533 5.7179 8.54481 4.50831 8.54455C4.46247 8.54455 4.41663 8.54455 4.36487 8.54455V7.93811H9.6557Z" fill="white"/>
<path id="Vector_7" d="M9.6518 9.60583V10.2125C9.46252 10.2071 9.28097 10.2461 9.10096 10.1475C8.88026 10.0267 8.64771 9.9279 8.39998 9.81015C8.3853 9.95389 8.37242 10.0802 8.35903 10.211H4.36792V9.6061H9.6518V9.60583Z" fill="white"/>
<path id="Vector_8" d="M6.78687 11.8754H4.36975V11.2682H8.27485C8.2697 11.3267 8.26532 11.3763 8.26043 11.434C7.72452 11.478 7.19685 11.5214 6.64961 11.5663C6.69803 11.6755 6.74026 11.7704 6.78687 11.8754Z" fill="white"/>
<path id="Vector_9" d="M11.6796 3.84402H9.59491V1.67249C10.2905 2.3972 10.9716 3.10657 11.6796 3.84428V3.84402Z" fill="white"/>
<path id="Vector_10" d="M10.7721 15.919C9.71673 15.9179 8.8566 15.0523 8.85171 13.9863C8.84681 12.9135 9.71621 12.0388 10.7857 12.0404C11.8501 12.042 12.6963 12.9128 12.6963 14.0061C12.6963 15.0539 11.8253 15.9197 10.7718 15.9187L10.7721 15.919Z" fill="#172D5A"/>
</g>
<defs>
<clipPath id="clip0_1090_1711">
<rect width="13.7515" height="21" fill="white" transform="translate(0.806641 0.0800781)"/>
</clipPath>
</defs>
</svg>
