<svg xmlns="http://www.w3.org/2000/svg" width="14" height="13" viewBox="0 0 14 13" fill="none">
    <path d="M6.7074 0C3.0603 0 0.106934 2.912 0.106934 6.5C0.106934 10.088 3.0603 13 6.7074 13C10.3611 13 13.3211 10.088 13.3211 6.5C13.3211 2.912 10.3611 0 6.7074 0ZM6.71401 11.7C3.79368 11.7 1.42835 9.373 1.42835 6.5C1.42835 3.627 3.79368 1.3 6.71401 1.3C9.63433 1.3 11.9997 3.627 11.9997 6.5C11.9997 9.373 9.63433 11.7 6.71401 11.7ZM7.04436 3.25H6.0533V7.15L9.52201 9.1975L10.0175 8.398L7.04436 6.6625V3.25Z" fill="#808080"/>
</svg>