<svg width="41" height="34" viewBox="0 0 41 34" fill="none" xmlns="http://www.w3.org/2000/svg">
<g id="Group 20">
<rect id="Rectangle 5" x="0.621338" y="0.25" width="39.4438" height="33.5" rx="1.75" fill="#DBE5F8" stroke="#172D5A" stroke-width="0.5"/>
<path id="Vector" d="M18.7532 9H20.9822C21.3528 9 21.6509 9.31348 21.6509 9.70312V14.625H24.0944C24.5904 14.625 24.8384 15.2549 24.4873 15.624L20.2494 20.083C20.0404 20.3027 19.6977 20.3027 19.4888 20.083L15.2453 15.624C14.8942 15.2549 15.1422 14.625 15.6381 14.625H18.0845V9.70312C18.0845 9.31348 18.3826 9 18.7532 9ZM27.0005 20.0156V23.2969C27.0005 23.6865 26.7024 24 26.3318 24H13.4036C13.033 24 12.7349 23.6865 12.7349 23.2969V20.0156C12.7349 19.626 13.033 19.3125 13.4036 19.3125H17.491L18.8563 20.748C19.4163 21.3369 20.3191 21.3369 20.8791 20.748L22.2444 19.3125H26.3318C26.7024 19.3125 27.0005 19.626 27.0005 20.0156ZM23.5455 22.5938C23.5455 22.2715 23.2948 22.0078 22.9883 22.0078C22.6818 22.0078 22.431 22.2715 22.431 22.5938C22.431 22.916 22.6818 23.1797 22.9883 23.1797C23.2948 23.1797 23.5455 22.916 23.5455 22.5938ZM25.3287 22.5938C25.3287 22.2715 25.078 22.0078 24.7715 22.0078C24.465 22.0078 24.2142 22.2715 24.2142 22.5938C24.2142 22.916 24.465 23.1797 24.7715 23.1797C25.078 23.1797 25.3287 22.916 25.3287 22.5938Z" fill="#ACA9A5"/>
</g>
</svg>
