<svg xmlns="http://www.w3.org/2000/svg" width="42" height="34" viewBox="0 0 42 34" fill="none">
    <rect x="0.25" y="0.25" width="41.5" height="33.5" rx="1.75" fill="#DBE5F8" stroke="#172D5A" stroke-width="0.5"/>
    <path d="M19.3281 9H21.6719C22.0615 9 22.375 9.31348 22.375 9.70312V14.625H24.9443C25.4658 14.625 25.7266 15.2549 25.3574 15.624L20.9014 20.083C20.6816 20.3027 20.3213 20.3027 20.1016 20.083L15.6396 15.624C15.2705 15.2549 15.5312 14.625 16.0527 14.625H18.625V9.70312C18.625 9.31348 18.9385 9 19.3281 9ZM28 20.0156V23.2969C28 23.6865 27.6865 24 27.2969 24H13.7031C13.3135 24 13 23.6865 13 23.2969V20.0156C13 19.626 13.3135 19.3125 13.7031 19.3125H18.001L19.4365 20.748C20.0254 21.3369 20.9746 21.3369 21.5635 20.748L22.999 19.3125H27.2969C27.6865 19.3125 28 19.626 28 20.0156ZM24.3672 22.5938C24.3672 22.2715 24.1035 22.0078 23.7812 22.0078C23.459 22.0078 23.1953 22.2715 23.1953 22.5938C23.1953 22.916 23.459 23.1797 23.7812 23.1797C24.1035 23.1797 24.3672 22.916 24.3672 22.5938ZM26.2422 22.5938C26.2422 22.2715 25.9785 22.0078 25.6562 22.0078C25.334 22.0078 25.0703 22.2715 25.0703 22.5938C25.0703 22.916 25.334 23.1797 25.6562 23.1797C25.9785 23.1797 26.2422 22.916 26.2422 22.5938Z" fill="#ACA9A5"/>
</svg>