<svg width="18" height="18" viewBox="0 0 18 18" fill="none" xmlns="http://www.w3.org/2000/svg">
<g id="ep:document">
<path id="Vector" d="M14.6191 6.45508H10.3691V2.20508H3.99414V14.9551H14.6191V6.45508ZM14.1793 5.39258L11.4316 2.64495V5.39258H14.1793ZM3.46289 1.14258H11.4316L15.6816 5.39258V15.4863C15.6816 15.6272 15.6257 15.7624 15.526 15.862C15.4264 15.9616 15.2913 16.0176 15.1504 16.0176H3.46289C3.32199 16.0176 3.18687 15.9616 3.08724 15.862C2.98761 15.7624 2.93164 15.6272 2.93164 15.4863V1.67383C2.93164 1.53293 2.98761 1.39781 3.08724 1.29818C3.18687 1.19855 3.32199 1.14258 3.46289 1.14258ZM6.11914 8.58008H12.4941V9.64258H6.11914V8.58008ZM6.11914 5.39258H8.77539V6.45508H6.11914V5.39258ZM6.11914 11.7676H12.4941V12.8301H6.11914V11.7676Z" fill="white"/>
</g>
</svg>
