<svg xmlns="http://www.w3.org/2000/svg" width="18" height="17" viewBox="0 0 18 17" fill="none">
    <g clip-path="url(#clip0_216_11915)">
        <path d="M3.5719 6.375H5.0119V7.79167H3.5719V6.375ZM13.6519 2.83333V12.75C13.6519 13.5292 13.0039 14.1667 12.2119 14.1667H2.1319C1.3327 14.1667 0.691895 13.5292 0.691895 12.75L0.699095 2.83333C0.699095 2.05417 1.3327 1.41667 2.1319 1.41667H2.8519V0H4.2919V1.41667H10.0519V0H11.4919V1.41667H12.2119C13.0039 1.41667 13.6519 2.05417 13.6519 2.83333ZM2.1319 4.25H12.2119V2.83333H2.1319V4.25ZM12.2119 12.75V5.66667H2.1319V12.75H12.2119ZM9.33191 7.79167H10.7719V6.375H9.33191V7.79167ZM6.45191 7.79167H7.89191V6.375H6.45191V7.79167Z" fill="#808080"/>
    </g>
    <defs>
        <clipPath id="clip0_216_11915">
        <rect width="17.28" height="17" fill="white" transform="translate(0.691895)"/>
        </clipPath>
    </defs>
</svg>