<svg width="38" height="38" viewBox="0 0 38 38" fill="none" xmlns="http://www.w3.org/2000/svg">
<path fill-rule="evenodd" clip-rule="evenodd" d="M22.5625 3.95833C22.5625 3.85335 22.5208 3.75267 22.4466 3.67844C22.3723 3.6042 22.2717 3.5625 22.1667 3.5625H11.0834C9.92856 3.5625 8.82106 4.02124 8.00449 4.83781C7.18793 5.65437 6.72919 6.76187 6.72919 7.91667V30.0833C6.72919 31.2381 7.18793 32.3456 8.00449 33.1622C8.82106 33.9788 9.92856 34.4375 11.0834 34.4375H26.9167C28.0715 34.4375 29.179 33.9788 29.9955 33.1622C30.8121 32.3456 31.2709 31.2381 31.2709 30.0833V14.4828C31.2709 14.3778 31.2291 14.2771 31.1549 14.2029C31.0807 14.1286 30.98 14.0869 30.875 14.0869H23.75C23.4351 14.0869 23.133 13.9618 22.9103 13.7391C22.6876 13.5164 22.5625 13.2144 22.5625 12.8994V3.95833ZM23.75 19.3958C24.065 19.3958 24.367 19.5209 24.5897 19.7436C24.8124 19.9663 24.9375 20.2684 24.9375 20.5833C24.9375 20.8983 24.8124 21.2003 24.5897 21.423C24.367 21.6457 24.065 21.7708 23.75 21.7708H14.25C13.9351 21.7708 13.633 21.6457 13.4103 21.423C13.1876 21.2003 13.0625 20.8983 13.0625 20.5833C13.0625 20.2684 13.1876 19.9663 13.4103 19.7436C13.633 19.5209 13.9351 19.3958 14.25 19.3958H23.75ZM23.75 25.7292C24.065 25.7292 24.367 25.8543 24.5897 26.077C24.8124 26.2997 24.9375 26.6017 24.9375 26.9167C24.9375 27.2316 24.8124 27.5337 24.5897 27.7564C24.367 27.9791 24.065 28.1042 23.75 28.1042H14.25C13.9351 28.1042 13.633 27.9791 13.4103 27.7564C13.1876 27.5337 13.0625 27.2316 13.0625 26.9167C13.0625 26.6017 13.1876 26.2997 13.4103 26.077C13.633 25.8543 13.9351 25.7292 14.25 25.7292H23.75Z" fill="#172D5A"/>
<path d="M24.9375 4.47131C24.9375 4.17997 25.2431 3.99472 25.4695 4.17681C25.6611 4.33197 25.8337 4.51247 25.9809 4.71831L30.7515 11.3636C30.8592 11.5156 30.742 11.7119 30.5552 11.7119H25.3333C25.2284 11.7119 25.1277 11.6702 25.0534 11.596C24.9792 11.5217 24.9375 11.421 24.9375 11.3161V4.47131Z" fill="#172D5A"/>
</svg>
