<svg width="12" height="15" viewBox="0 0 12 15" fill="none" xmlns="http://www.w3.org/2000/svg">
<g id="Frame" clip-path="url(#clip0_1090_1683)">
<path id="Vector" d="M10.4211 7.29162C10.5677 10.4091 8.42428 12.7466 5.90367 12.6779C3.31679 12.6073 1.30657 10.2852 1.49938 7.59769C1.63156 5.75521 2.49691 4.44376 4.01682 3.58899C4.64319 3.23671 4.76092 2.57273 4.22232 2.29894C3.98122 2.17651 3.57163 2.2381 3.31291 2.37556C0.746122 3.73771 -0.466423 6.89127 0.420074 9.81987C1.30023 12.7282 4.01153 14.4914 6.87829 14.0201C9.35449 13.6126 11.3485 11.5215 11.7179 8.9437C12.1169 6.16081 10.8638 3.5334 8.57409 2.33087C8.12361 2.09426 7.70557 2.03155 7.45671 2.58812C7.21632 3.12592 7.55893 3.39219 7.96323 3.62091C9.50923 4.49446 10.3404 5.86449 10.4208 7.29237L10.4211 7.29162ZM5.28118 4.73707C5.28118 5.81192 5.28682 6.88714 5.27871 7.96199C5.27448 8.50579 5.38305 9.00942 5.9865 8.99778C6.54484 8.98689 6.6534 8.50392 6.65199 7.98565C6.646 5.83558 6.64565 3.6855 6.65199 1.53543C6.65375 1.01078 6.52122 0.537952 5.97557 0.528938C5.42993 0.519925 5.27484 0.982237 5.27836 1.51177C5.28576 2.58662 5.28048 3.66184 5.28048 4.73669L5.28118 4.73707Z" fill="white"/>
<path id="Vector_2" d="M10.421 7.29188C10.3406 5.86401 9.50909 4.49397 7.96344 3.62042C7.55879 3.3917 7.21618 3.12581 7.45692 2.58763C7.70578 2.03106 8.12382 2.09378 8.5743 2.33038C10.864 3.53291 12.1171 6.16032 11.7181 8.94321C11.3483 11.521 9.3547 13.6125 6.8785 14.0196C4.01175 14.4913 1.30044 12.7281 0.420286 9.81938C-0.466564 6.89153 0.745981 3.73797 3.31312 2.37544C3.57185 2.23837 3.98143 2.1764 4.22253 2.29883C4.76113 2.57261 4.6434 3.2366 4.01703 3.58887C2.49712 4.44402 1.63177 5.75547 1.49959 7.59758C1.30678 10.2851 3.317 12.6072 5.90388 12.6778C8.42449 12.7465 10.5679 10.409 10.4213 7.2915L10.421 7.29188Z" fill="white"/>
<path id="Vector_3" d="M5.28104 4.73731C5.28104 3.66246 5.28633 2.58724 5.27893 1.51239C5.2754 0.982857 5.43014 0.520169 5.97614 0.529182C6.52179 0.538196 6.65397 1.01102 6.65256 1.53568C6.64586 3.68575 6.64621 5.83582 6.65256 7.98589C6.65397 8.50416 6.5454 8.98675 5.98707 8.99802C5.38326 9.00966 5.27505 8.50604 5.27928 7.96223C5.28739 6.88738 5.28175 5.81216 5.28175 4.73731H5.28104Z" fill="white"/>
</g>
<defs>
<clipPath id="clip0_1090_1683">
<rect width="11.6595" height="13.567" fill="white" transform="translate(0.131592 0.529175)"/>
</clipPath>
</defs>
</svg>
