<svg width="512" height="512" viewBox="0 0 512 512" fill="none" xmlns="http://www.w3.org/2000/svg">
<g clip-path="url(#clip0_3_18995)">
<path d="M504.5 47.907C504.5 25.591 486.409 7.5 464.094 7.5C441.778 7.5 423.687 25.591 423.687 47.907V70.13H504.5V47.907Z" fill="#CBE5E8"/>
<path d="M383.28 504.5C360.964 504.5 342.874 486.409 342.874 464.094V441.87H7.5V464.094C7.5 486.41 25.591 504.5 47.907 504.5H383.28Z" fill="#CBE5E8"/>
<path d="M58.0081 47.907C58.0081 25.591 76.0991 7.5 98.4151 7.5H464.094C441.778 7.5 423.687 25.591 423.687 47.907V464.094C423.687 486.41 405.596 504.5 383.281 504.5C360.965 504.5 342.875 486.409 342.875 464.094V441.87H58.0081V47.907Z" fill="#F1F6F7"/>
<path d="M149.933 58.008H331.762V90.333H149.933V58.008Z" fill="#62A4FB"/>
<path d="M108.516 334.793H189.329V367.118H108.516V334.793Z" fill="#E175A5"/>
<path d="M418.723 7.5C405.755 17.74 397.422 33.59 397.422 51.396V463.683C397.422 471.289 391.589 477.843 383.992 478.218C375.872 478.618 369.137 472.128 369.137 464.093V435.808C369.137 424.65 360.092 415.605 348.934 415.605H58.0081V441.869H342.874V463.295C342.874 485.952 361.416 504.925 384.068 504.492C406.02 504.072 423.687 486.146 423.687 464.093V47.907C423.687 25.591 441.778 7.5 464.094 7.5H418.723Z" fill="#DEECF1"/>
<path d="M358.026 273.173V408.535L398.433 387.321L438.839 408.535V273.173H358.026Z" fill="#FFD064"/>
<path d="M358.026 357.771C370.77 361.867 384.346 364.088 398.432 364.088C412.518 364.088 426.095 361.867 438.838 357.771V273.173H358.025V357.771H358.026Z" fill="#FFC250"/>
<path d="M398.433 337.823C457.012 337.823 504.5 290.335 504.5 231.756C504.5 173.177 457.012 125.689 398.433 125.689C339.854 125.689 292.366 173.177 292.366 231.756C292.366 290.335 339.854 337.823 398.433 337.823Z" fill="#A2F5C3"/>
<path d="M461.755 146.716C474.957 164.4 482.782 186.322 482.782 210.038C482.782 268.523 435.2 316.105 376.715 316.105C352.999 316.105 331.078 308.28 313.393 295.078C332.749 321.005 363.664 337.823 398.433 337.823C456.918 337.823 504.5 290.241 504.5 231.756C504.5 196.986 487.682 166.071 461.755 146.716Z" fill="#88F2A9"/>
<path d="M398.433 305.498C439.16 305.498 472.175 272.483 472.175 231.756C472.175 191.029 439.16 158.014 398.433 158.014C357.706 158.014 324.691 191.029 324.691 231.756C324.691 272.483 357.706 305.498 398.433 305.498Z" fill="#64B07D"/>
<path d="M504.5 77.63C508.642 77.63 512 74.272 512 70.13V47.907C512 21.491 490.509 0 464.093 0C464.092 0 464.092 0 464.091 0C464.09 0 464.09 0 464.089 0H98.41C71.998 0 50.51 21.492 50.51 47.91V107C50.51 111.142 53.868 114.5 58.01 114.5C62.152 114.5 65.51 111.142 65.51 107V47.91C65.51 29.763 80.269 15 98.41 15H429.31C421.181 23.589 416.19 35.177 416.19 47.91V119.582C410.402 118.669 404.471 118.19 398.43 118.19C335.813 118.19 284.87 169.137 284.87 231.76C284.87 277.27 311.783 316.605 350.526 334.706V408.535C350.526 411.161 351.899 413.596 354.147 414.953C356.393 416.312 359.187 416.395 361.513 415.175L398.433 395.792L416.187 405.113V464.093C416.187 482.238 401.425 497 383.28 497C365.134 497 350.37 482.237 350.37 464.09V441.87C350.37 437.728 347.012 434.37 342.87 434.37H296.05C291.908 434.37 288.55 437.728 288.55 441.87C288.55 446.012 291.908 449.37 296.05 449.37H335.37V464.09C335.37 476.823 340.362 488.411 348.493 497H47.91C29.764 497 15 482.237 15 464.09V449.37H261.05C265.192 449.37 268.55 446.012 268.55 441.87C268.55 437.728 265.192 434.37 261.05 434.37H65.51V142C65.51 137.858 62.152 134.5 58.01 134.5C53.868 134.5 50.51 137.858 50.51 142V434.37H7.5C3.358 434.37 0 437.728 0 441.87V464.09C0 490.508 21.492 512 47.91 512H383.28C409.696 512 431.187 490.509 431.187 464.093V412.988L435.353 415.175C436.447 415.749 437.644 416.034 438.839 416.034C440.185 416.034 441.529 415.672 442.719 414.952C444.967 413.594 446.34 411.16 446.34 408.534V334.698C452.397 331.864 458.238 328.496 463.788 324.575C467.171 322.185 467.976 317.505 465.587 314.122C463.196 310.738 458.517 309.934 455.134 312.324C438.468 324.096 418.861 330.319 398.431 330.319C344.085 330.319 299.871 286.105 299.871 231.759C299.871 177.407 344.085 133.189 398.431 133.189C452.783 133.189 497.001 177.407 497.001 231.759C497.001 252.683 490.505 272.669 478.216 289.556C475.779 292.905 476.518 297.596 479.867 300.034C483.218 302.471 487.908 301.732 490.345 298.383C504.512 278.915 512 255.876 512 231.76C512 180.523 477.891 137.109 431.19 123.014V77.63H504.5ZM431.339 340.45V396.126L401.919 380.68C399.736 379.534 397.129 379.534 394.946 380.68L365.526 396.126V340.452C375.946 343.612 386.992 345.319 398.43 345.319C409.708 345.32 420.764 343.656 431.339 340.45ZM464.09 15H464.092C464.092 15 464.093 15 464.094 15C482.238 15 497 29.762 497 47.907V62.63H431.19V47.91C431.19 29.763 445.949 15 464.09 15Z" fill="black"/>
<path d="M339.262 90.333V58.008C339.262 53.866 335.904 50.508 331.762 50.508H149.933C145.791 50.508 142.433 53.866 142.433 58.008V90.333C142.433 94.475 145.791 97.833 149.933 97.833H331.762C335.904 97.833 339.262 94.476 339.262 90.333ZM324.262 82.833H157.433V65.508H324.262V82.833Z" fill="black"/>
<path d="M101.016 367.118C101.016 371.26 104.374 374.618 108.516 374.618H189.329C193.471 374.618 196.829 371.26 196.829 367.118V334.793C196.829 330.651 193.471 327.293 189.329 327.293H108.516C104.374 327.293 101.016 330.651 101.016 334.793V367.118ZM116.016 342.292H181.829V359.617H116.016V342.292Z" fill="black"/>
<path d="M160.035 141.423C155.893 141.423 152.535 144.781 152.535 148.923C152.535 153.065 155.893 156.423 160.035 156.423H256C260.142 156.423 263.5 153.065 263.5 148.923C263.5 144.781 260.142 141.423 256 141.423H160.035Z" fill="black"/>
<path d="M102.026 185.289C102.026 189.431 105.384 192.789 109.526 192.789H256C260.142 192.789 263.5 189.431 263.5 185.289C263.5 181.147 260.142 177.789 256 177.789H109.526C105.384 177.789 102.026 181.146 102.026 185.289Z" fill="black"/>
<path d="M109.526 229.154H256C260.142 229.154 263.5 225.796 263.5 221.654C263.5 217.512 260.142 214.154 256 214.154H109.526C105.384 214.154 102.026 217.512 102.026 221.654C102.026 225.796 105.384 229.154 109.526 229.154Z" fill="black"/>
<path d="M109.526 301.886H256C260.142 301.886 263.5 298.528 263.5 294.386C263.5 290.244 260.142 286.886 256 286.886H109.526C105.384 286.886 102.026 290.244 102.026 294.386C102.026 298.528 105.384 301.886 109.526 301.886Z" fill="black"/>
<path d="M109.526 265.521H256C260.142 265.521 263.5 262.163 263.5 258.021C263.5 253.879 260.142 250.521 256 250.521H109.526C105.384 250.521 102.026 253.879 102.026 258.021C102.026 262.163 105.384 265.521 109.526 265.521Z" fill="black"/>
<path d="M398.433 150.514C353.636 150.514 317.191 186.959 317.191 231.756C317.191 276.553 353.636 312.998 398.433 312.998C443.23 312.998 479.675 276.553 479.675 231.756C479.675 186.959 443.23 150.514 398.433 150.514ZM398.433 297.998C361.907 297.998 332.191 268.282 332.191 231.756C332.191 195.23 361.907 165.514 398.433 165.514C434.959 165.514 464.675 195.23 464.675 231.756C464.675 268.282 434.959 297.998 398.433 297.998Z" fill="black"/>
<path d="M398.433 197.839C407.477 197.839 415.991 201.371 422.404 207.785C425.334 210.714 430.081 210.713 433.011 207.785C435.94 204.856 435.939 200.107 433.011 197.178C423.764 187.932 411.484 182.84 398.433 182.84C371.46 182.84 349.516 204.784 349.516 231.757C349.516 258.73 371.46 280.674 398.433 280.674C411.484 280.674 423.764 275.582 433.011 266.336C435.94 263.407 435.94 258.658 433.011 255.729C430.082 252.8 425.333 252.8 422.404 255.729C415.99 262.142 407.477 265.674 398.433 265.674C379.731 265.674 364.516 250.459 364.516 231.757C364.516 213.055 379.731 197.839 398.433 197.839Z" fill="black"/>
</g>
<defs>
<clipPath id="clip0_3_18995">
<rect width="512" height="512" fill="white"/>
</clipPath>
</defs>
</svg>
