<svg width="14" height="16" viewBox="0 0 14 16" fill="none" xmlns="http://www.w3.org/2000/svg">
<g id="eos-icons:system-re-registered" clip-path="url(#clip0_1090_1705)">
<path id="Vector" d="M12.1817 1.33008H2.43166C2.14434 1.33008 1.86879 1.46177 1.66563 1.69619C1.46246 1.93062 1.34833 2.24856 1.34833 2.58008V10.0801C1.34833 10.4116 1.46246 10.7295 1.66563 10.964C1.86879 11.1984 2.14434 11.3301 2.43166 11.3301H6.22333V12.5801H5.13999V13.8301H9.47333V12.5801H8.38999V11.3301H12.1817C12.469 11.3301 12.7445 11.1984 12.9477 10.964C13.1509 10.7295 13.265 10.4116 13.265 10.0801V2.58008C13.265 2.24856 13.1509 1.93062 12.9477 1.69619C12.7445 1.46177 12.469 1.33008 12.1817 1.33008ZM12.1817 5.70508H8.38999V6.95508H12.1817V10.0801H2.43166V6.95508H5.13999V8.83008L7.30666 6.33008L5.13999 3.83008V5.70508H2.43166V2.58008H12.1817V5.70508Z" fill="white"/>
</g>
<defs>
<clipPath id="clip0_1090_1705">
<rect width="13" height="15" fill="white" transform="translate(0.806641 0.0800781)"/>
</clipPath>
</defs>
</svg>
