<svg xmlns="http://www.w3.org/2000/svg" width="43" height="34" viewBox="0 0 43 34" fill="none">
    <rect x="0.25" y="0.25" width="42" height="33.5" rx="1.75" fill="#D3ECBA" />
    <path d="M21.9707 24.9333L19.3145 24.9333C18.8729 24.9333 18.5176 24.6017 18.5176 24.1895L18.5176 18.9833L15.6057 18.9833C15.0146 18.9833 14.7191 18.317 15.1375 17.9265L20.1877 13.2099C20.4367 12.9775 20.8451 12.9775 21.0941 13.2099L26.151 17.9265C26.5693 18.317 26.2738 18.9833 25.6828 18.9833L22.7676 18.9833L22.7676 24.1895C22.7676 24.6017 22.4123 24.9333 21.9707 24.9333ZM12.1426 13.2812L12.1426 9.81037C12.1426 9.39821 12.4979 9.06662 12.9395 9.06662L28.3457 9.06662C28.7873 9.06662 29.1426 9.39821 29.1426 9.81037L29.1426 13.2812C29.1426 13.6934 28.7873 14.025 28.3457 14.025L23.4748 14.025L21.8479 12.5065C21.1805 11.8836 20.1047 11.8836 19.4373 12.5065L17.8104 14.025L12.9395 14.025C12.4979 14.025 12.1426 13.6934 12.1426 13.2812ZM16.2598 10.5541C16.2598 10.895 16.5586 11.1739 16.9238 11.1739C17.2891 11.1739 17.5879 10.895 17.5879 10.5541C17.5879 10.2132 17.2891 9.93433 16.9238 9.93433C16.5586 9.93433 16.2598 10.2132 16.2598 10.5541ZM14.1348 10.5541C14.1348 10.895 14.4336 11.1739 14.7988 11.1739C15.1641 11.1739 15.4629 10.895 15.4629 10.5541C15.4629 10.2132 15.1641 9.93433 14.7988 9.93433C14.4336 9.93433 14.1348 10.2132 14.1348 10.5541Z" fill="#ACA9A5"/>
</svg>